<?xml version="1.0" encoding="UTF-8"?>
<svg version="1.1" xmlns="http://www.w3.org/2000/svg" width="4173" height="4183">
<path d="M0 0 C1.00325317 0.16308655 2.00650635 0.3261731 3.04016113 0.49420166 C86.34983841 14.09494829 168.94640904 32.37590262 250 56 C250.84471863 56.24582825 251.68943726 56.49165649 252.55975342 56.74493408 C347.22571689 84.34429436 440.12398507 118.36828663 546.70263672 167.45654297 C550.02416834 169.01131292 553.35594374 170.54177507 556.69140625 172.06640625 C572.78140033 179.44742731 588.65980061 187.22341594 604.5 195.125 C605.50349487 195.62415924 606.50698975 196.12331848 607.54089355 196.63760376 C620.1701197 202.92649302 632.6444785 209.43983234 644.99438477 216.26147461 C650.09786144 219.07317035 655.26070801 221.7638018 660.4375 224.4375 C670.70402666 229.77957116 680.77530377 235.43792361 690.82080078 241.18310547 C693.6507773 242.80042118 696.48336704 244.41299276 699.31724548 246.02345276 C711.32306971 252.84680196 723.31987197 259.67547094 735.11523438 266.85888672 C737.29451152 268.17830917 739.48266341 269.48228475 741.671875 270.78515625 C751.54218584 276.66450353 761.31510766 282.67238531 771.0078125 288.83984375 C774.44550741 291.0244258 777.89955858 293.17966744 781.3671875 295.31640625 C805.97900362 310.50553396 829.92673151 326.70668951 853.59570312 343.3203125 C856.50122764 345.35016715 859.42485071 347.35240582 862.35253906 349.35009766 C888.89855363 367.46408219 914.55614125 386.93664893 940.04394531 406.50097656 C941.82584513 407.86653633 943.61127863 409.2272725 945.3984375 410.5859375 C952.02691824 415.64322281 958.52751473 420.83220275 964.98193359 426.10888672 C969.34236804 429.66947197 973.74505378 433.16748269 978.1875 436.625 C983.89034719 441.07138326 989.42321881 445.69141589 994.921875 450.38671875 C997.7270732 452.77882269 1000.57463157 455.11455851 1003.4375 457.4375 C1008.3008243 461.39470275 1013.05950288 465.46293686 1017.80615234 469.55834961 C1021.34310587 472.60295688 1024.92399941 475.57648861 1028.5625 478.5 C1033.92366488 482.84902756 1038.95570739 487.50799484 1044 492.21484375 C1046.95876022 494.97346339 1049.98395085 497.64611326 1053.04296875 500.29296875 C1056.25653507 503.09601961 1059.40922137 505.96659592 1062.57421875 508.82421875 C1064.63702788 510.67443563 1066.7171237 512.49944809 1068.8125 514.3125 C1078.96217665 523.16301804 1088.70700316 532.49617802 1098.5349884 541.70048523 C1100.40963754 543.44927351 1102.28930429 545.19195748 1104.17276001 546.93121338 C1113.31010656 555.38794303 1122.20483305 564.05639728 1131 572.8671875 C1132.37412264 574.24063371 1133.74839345 575.61393169 1135.12280273 576.98709106 C1137.9713484 579.83417917 1140.81812037 582.68302508 1143.66357422 585.53320312 C1147.29216746 589.16753084 1150.92528556 592.79729702 1154.5597229 596.42577934 C1157.38580789 599.24823827 1160.20949165 602.07308981 1163.0324707 604.89865494 C1164.37124488 606.23809075 1165.71074715 607.57679927 1167.05102539 608.91473007 C1179.66059088 621.50702143 1179.66059088 621.50702143 1184.61694336 627.40286255 C1186.16543166 629.19103852 1187.8114801 630.84415896 1189.5 632.5 C1191.85330461 634.81429957 1194.06847675 637.18358037 1196.21875 639.6875 C1200.02988044 644.07130824 1203.99790187 648.2908968 1208 652.5 C1212.58212438 657.31913081 1217.08422576 662.18098226 1221.44140625 667.20507812 C1223.43152515 669.49695691 1225.46279515 671.74995285 1227.5 674 C1234.94775792 682.26137853 1242.18414341 690.69812091 1249.41503906 699.14892578 C1250.96011515 700.95341852 1252.50702979 702.75631496 1254.0546875 704.55859375 C1263.8265904 715.93963286 1273.54017526 727.35713879 1283 739 C1284.02064434 740.25015432 1285.04149067 741.50014375 1286.0625 742.75 C1293.14070355 751.42436221 1300.11805417 760.16934573 1307 769 C1307.80606689 770.03229736 1307.80606689 770.03229736 1308.62841797 771.08544922 C1325.24489887 792.36687084 1341.61816432 813.81049595 1357.37207031 835.73974609 C1358.95802683 837.94172352 1360.5516892 840.13787026 1362.1484375 842.33203125 C1379.08793788 865.62515864 1395.09275511 889.51924757 1411.01733398 913.51147461 C1413.38701946 917.08038995 1415.7654883 920.64333283 1418.14704895 924.20433044 C1422.0679257 930.06967188 1425.94415508 935.95682591 1429.6875 941.9375 C1430.17968018 942.72141113 1430.67186035 943.50532227 1431.17895508 944.31298828 C1432.23600643 945.99737128 1433.29222555 947.68227681 1434.34765625 949.36767578 C1436.05787131 952.09219392 1437.7783364 954.81004777 1439.5 957.52734375 C1448.30183377 971.46112611 1456.70802235 985.59715601 1464.99058533 999.84246826 C1467.6474295 1004.40764477 1470.343548 1008.94833815 1473.05053711 1013.48388672 C1481.00214178 1026.82246003 1488.52089894 1040.39227691 1496 1054 C1496.53512207 1054.96969727 1497.07024414 1055.93939453 1497.62158203 1056.93847656 C1504.5861385 1069.55911047 1511.3185139 1082.28869421 1517.9375 1095.09375 C1520.09673923 1099.26898655 1522.28468222 1103.42692091 1524.4987793 1107.57324219 C1538.19092026 1133.27754323 1550.96149731 1159.48519783 1563 1186 C1563.83032625 1187.81609273 1564.66065899 1189.63218254 1565.49142456 1191.44807434 C1606.027247 1280.11846241 1640.80046142 1371.61687002 1749 1911 C1749.07047546 1911.98758301 1749.14095093 1912.97516602 1749.21356201 1913.99267578 C1755.36164439 2000.86336073 1755.74082637 2088.16646547 1656 2695 C1655.57007751 2696.35871216 1655.57007751 2696.35871216 1655.13146973 2697.74487305 C1635.99346475 2758.19442448 1613.96489695 2817.68031543 1588.8927002 2875.92285156 C1588.02773377 2877.93546864 1587.1667959 2879.94974995 1586.30761719 2881.96484375 C1565.60404265 2930.51967381 1543.32007523 2978.65473584 1518.47265625 3025.234375 C1517.06598003 3027.87609056 1515.66575883 3030.52116136 1514.26704407 3033.167099 C1506.76669655 3047.35036587 1499.15378537 3061.449679 1491.1953125 3075.3828125 C1488.99428227 3079.23698283 1486.82558384 3083.10705156 1484.6796875 3086.9921875 C1477.47371241 3100.02389643 1469.95334584 3112.81419316 1462.17897034 3125.51083374 C1461.82600388 3126.08733673 1461.47303741 3126.66383972 1461.109375 3127.2578125 C1460.75934921 3127.82940094 1460.40932343 3128.40098938 1460.0486908 3128.98989868 C1456.69600434 3134.47591666 1453.43720582 3140.01511208 1450.1875 3145.5625 C1444.86355122 3154.62235275 1439.33991272 3163.53574308 1433.67333984 3172.38476562 C1431.81469061 3175.2896169 1429.96389324 3178.19939728 1428.11328125 3181.109375 C1420.21935475 3193.5054835 1412.22781277 3205.82310993 1404 3218 C1403.28408691 3219.06154297 1402.56817383 3220.12308594 1401.83056641 3221.21679688 C1392.8092345 3234.59006301 1383.74959785 3247.92933897 1374.37841797 3261.06103516 C1372.94289199 3263.08033153 1371.51891766 3265.10736016 1370.09765625 3267.13671875 C1362.56612031 3277.88328298 1354.8331287 3288.47152772 1347 3299 C1346.49500977 3299.67885254 1345.99001953 3300.35770508 1345.46972656 3301.05712891 C1329.7841561 3322.1126759 1313.74681509 3342.87526068 1297.31787109 3363.35449219 C1296.19442654 3364.75723697 1295.07527623 3366.1634192 1293.95703125 3367.5703125 C1285.11472733 3378.69389312 1276.04737357 3389.64096304 1266.8371582 3400.46142578 C1263.97052494 3403.83424794 1261.16061206 3407.24758183 1258.375 3410.6875 C1254.79599877 3415.08801575 1251.052077 3419.29832521 1247.23046875 3423.48828125 C1245.00480649 3425.99458744 1242.90478439 3428.56924393 1240.8125 3431.1875 C1235.90764404 3437.25607398 1230.57244999 3442.88706664 1225.22265625 3448.5625 C1222.3205387 3451.64439475 1219.51396639 3454.79379898 1216.75 3458 C1212.59394736 3462.74977445 1208.27855626 3467.36066956 1204 3472 C1203.51337891 3472.52787109 1203.02675781 3473.05574219 1202.52539062 3473.59960938 C1200.53475476 3475.75854207 1198.54378018 3477.91714882 1196.54980469 3480.07299805 C1194.03487409 3482.79211513 1191.52608798 3485.51633173 1189.03125 3488.25390625 C1183.37979441 3494.44093907 1177.62395443 3500.48086556 1171.62719727 3506.3359375 C1168.90699506 3509.01031567 1166.32974648 3511.74470129 1163.85058594 3514.64501953 C1159.84866537 3519.23804908 1155.59707518 3523.54707312 1151.28515625 3527.84765625 C1150.47058456 3528.66318466 1149.65601288 3529.47871307 1148.8167572 3530.31895447 C1147.10440807 3532.03198008 1145.39081158 3533.74375965 1143.67602539 3535.4543457 C1141.06997985 3538.05503552 1138.46931478 3540.66101956 1135.86914062 3543.26757812 C1134.19563301 3544.94042486 1132.52181518 3546.61296134 1130.84765625 3548.28515625 C1130.0797023 3549.05513443 1129.31174835 3549.82511261 1128.52052307 3550.61842346 C1124.40963681 3554.71174148 1120.22218692 3558.64632429 1115.80821228 3562.41197205 C1112.54531622 3565.27754829 1109.53883081 3568.40083713 1106.5 3571.5 C1102.02907716 3576.01947185 1097.54700481 3580.42580628 1092.6875 3584.53125 C1090.87059567 3586.11262969 1089.1878872 3587.78197196 1087.5 3589.5 C1084.60000647 3592.4454073 1081.56373569 3595.15463709 1078.43359375 3597.8515625 C1075.23404847 3600.67620119 1072.11947136 3603.58750584 1069 3606.5 C1064.69466115 3610.51605179 1060.37032328 3614.49129246 1055.91015625 3618.3359375 C1053.63795489 3620.31540126 1051.41540128 3622.3458317 1049.1875 3624.375 C1045.74621795 3627.48528851 1042.23678702 3630.46478312 1038.625 3633.375 C1034.61173184 3636.61952947 1030.77589133 3639.98751465 1027 3643.5 C1022.42410934 3647.75203128 1017.71371516 3651.76664678 1012.84765625 3655.6875 C1009.69378006 3658.24867243 1006.59421721 3660.86741637 1003.5 3663.5 C997.72386025 3668.40490675 991.8812921 3673.22145017 986 3678 C984.74984568 3679.02064434 983.49985625 3680.04149067 982.25 3681.0625 C969.85151422 3691.17943518 957.27894546 3701.05438676 944.578125 3710.78808594 C943.04942647 3711.96204317 941.52464463 3713.14109517 940 3714.3203125 C920.42263871 3729.4528137 900.60476195 3744.3297625 880.34082031 3758.53198242 C875.97102291 3761.59683916 871.63828446 3764.70710215 867.32543945 3767.8515625 C858.63314098 3774.18346446 849.78843112 3780.2252431 840.80957031 3786.14160156 C837.49889884 3788.33145482 834.19807355 3790.53575566 830.8984375 3792.7421875 C792.99259024 3818.08517938 754.51586447 3842.43138313 715.03027344 3865.24658203 C711.87320355 3867.07336868 708.72152656 3868.90922656 705.5703125 3870.74609375 C692.11627843 3878.57139928 678.54164579 3886.12305774 664.82470703 3893.4765625 C662.15421545 3894.91682762 659.49488838 3896.37524058 656.83984375 3897.84375 C639.76045061 3907.28287655 622.39464643 3916.15973661 605 3925 C604.29155945 3925.36023254 603.5831189 3925.72046509 602.85321045 3926.09161377 C584.99633994 3935.16589024 567.02886056 3943.92348201 548.80908203 3952.25146484 C545.41723068 3953.80487715 542.03447649 3955.3773412 538.65319824 3956.95361328 C492.34899644 3978.53830307 445.08989768 3997.78637701 397.23529053 4015.65177917 C392.63798697 4017.37242417 388.06297304 4019.14151492 383.49609375 4020.94140625 C382.37460938 4021.378479 381.253125 4021.81555176 380.09765625 4022.26586914 C378.06032042 4023.0615067 376.02735076 4023.86846218 374 4024.68920898 C373.12214844 4025.02895752 372.24429688 4025.36870605 371.33984375 4025.71875 C370.59081787 4026.01716797 369.84179199 4026.31558594 369.07006836 4026.62304688 C367 4027 367 4027 365.14868164 4025.93603516 C362.89427575 4024.69009322 362.89427575 4024.69009322 359.93945312 4025.80419922 C358.73224609 4026.29936035 357.52503906 4026.79452148 356.28125 4027.3046875 C355.27174789 4027.70949593 355.27174789 4027.70949593 354.24185181 4028.1224823 C352.76918688 4028.71419422 351.29920085 4029.31260601 349.831604 4029.91677856 C345.78462415 4031.57996958 341.71534817 4033.18708737 337.6484375 4034.80078125 C336.78717255 4035.14384811 335.92590759 4035.48691498 335.0385437 4035.84037781 C317.85803622 4042.65797206 300.41291734 4048.80628783 283 4055 C282.18335876 4055.29068359 281.36671753 4055.58136719 280.52532959 4055.88085938 C204.60151608 4082.8587658 126.03175071 4104.26764733 47 4120 C46.01356506 4120.19746826 45.02713013 4120.39493652 44.01080322 4120.59838867 C13.4448422 4126.71480004 -17.17491547 4132.35180178 -48 4137 C-49.28055267 4137.19338959 -49.28055267 4137.19338959 -50.5869751 4137.39068604 C-106.04482764 4145.73075374 -161.83514609 4151.37976145 -217.8125 4154.6875 C-218.84280334 4154.74843842 -219.87310669 4154.80937683 -220.93463135 4154.87216187 C-245.27120081 4156.29301314 -269.57422797 4157.15912325 -293.953125 4157.203125 C-296.37092099 4157.21010606 -298.7887168 4157.217147 -301.20651245 4157.22424316 C-308.88767731 4157.24350978 -316.5688136 4157.24841888 -324.25 4157.25 C-325.55794273 4157.25058914 -326.86588547 4157.25117828 -328.21346283 4157.25178528 C-366.80476547 4157.26405693 -405.25289955 4157.02406671 -443.75823975 4154.23431396 C-447.10480553 4153.99242467 -450.45195299 4153.76035598 -453.79931641 4153.52978516 C-468.5464639 4152.50432821 -483.2770866 4151.3283321 -498 4150 C-498.87432678 4149.92114563 -499.74865356 4149.84229126 -500.6494751 4149.76104736 C-595.68195896 4141.11679472 -690.10598999 4124.50638983 -900.4697876 4066.82171631 C-902.99353496 4066.0020996 -905.51878163 4065.18726194 -908.04443359 4064.37353516 C-990.3276685 4037.82327791 -1069.98284814 4003.98124927 -1147.625 3966.0625 C-1148.58225983 3965.59557739 -1149.53951965 3965.12865479 -1150.52578735 3964.64758301 C-1169.22199291 3955.51452645 -1187.68638271 3945.93980146 -1206 3936.0625 C-1207.06758545 3935.48749756 -1208.1351709 3934.91249512 -1209.23510742 3934.32006836 C-1217.60834931 3929.79200405 -1225.90625961 3925.13823421 -1234.17993164 3920.43115234 C-1241.06629726 3916.51442872 -1248.00080234 3912.71086459 -1255 3909 C-1254.6918335 3909.70608398 -1254.38366699 3910.41216797 -1254.06616211 3911.13964844 C-1252.67807948 3914.33810214 -1251.30764508 3917.54382382 -1249.9375 3920.75 C-1249.45216797 3921.86117187 -1248.96683594 3922.97234375 -1248.46679688 3924.1171875 C-1248.01240234 3925.18710938 -1247.55800781 3926.25703125 -1247.08984375 3927.359375 C-1246.66566162 3928.34389648 -1246.24147949 3929.32841797 -1245.80444336 3930.34277344 C-1244.93942411 3933.20009349 -1245.16907817 3934.23076747 -1246 3937 C-1251.35008967 3934.33755045 -1256.69871435 3931.67218548 -1262.04614258 3929.00439453 C-1263.85598802 3928.10194755 -1265.66619515 3927.20022545 -1267.47680664 3926.29931641 C-1280.07423655 3920.03037019 -1292.57570974 3913.60522342 -1305 3907 C-1306.24640035 3906.3396544 -1307.49289472 3905.67948621 -1308.73950195 3905.01953125 C-1323.68557442 3897.0930844 -1338.50881479 3888.98176861 -1353.20117188 3880.59277344 C-1356.05053186 3878.97124303 -1358.90682461 3877.3626347 -1361.765625 3875.7578125 C-1391.18663144 3859.23545118 -1420.10159641 3841.82466502 -1448.49755859 3823.59814453 C-1450.90334588 3822.06172662 -1453.31812856 3820.54101172 -1455.73828125 3819.02734375 C-1474.43032562 3807.33573411 -1492.68492949 3794.98249498 -1510.84326172 3782.48193359 C-1512.92459395 3781.05181285 -1515.01029394 3779.62833202 -1517.09765625 3778.20703125 C-1525.73483712 3772.31641047 -1534.23973875 3766.26001257 -1542.69921875 3760.1171875 C-1545.87804855 3757.80901049 -1549.0691999 3755.51956917 -1552.2722168 3753.24511719 C-1566.70240627 3742.99737671 -1580.87368122 3732.40761614 -1594.8984375 3721.61328125 C-1597.03180939 3719.97558127 -1599.17115959 3718.3460141 -1601.3125 3716.71875 C-1609.42756935 3710.54784915 -1617.45361662 3704.28396604 -1625.39453125 3697.890625 C-1628.29763825 3695.55566968 -1631.22383267 3693.25251541 -1634.16162109 3690.96142578 C-1645.8267323 3681.86270553 -1657.20630224 3672.413351 -1668.47338867 3662.82763672 C-1671.74095921 3660.05114911 -1675.04359143 3657.32442077 -1678.375 3654.625 C-1687.21523285 3647.42375922 -1695.81483686 3639.92076839 -1704.25 3632.25 C-1707.64034786 3629.16991692 -1711.1211118 3626.24940243 -1714.6875 3623.375 C-1718.47194966 3620.31342275 -1721.96488014 3617.15436499 -1725.34765625 3613.66015625 C-1727.04363594 3611.95615774 -1728.80489696 3610.38285917 -1730.625 3608.8125 C-1735.39406982 3604.69710577 -1739.9980121 3600.41051626 -1744.6171875 3596.12890625 C-1746.82221556 3594.08554644 -1749.03511383 3592.05146698 -1751.2578125 3590.02734375 C-1756.02838747 3585.68239629 -1760.74633691 3581.31917109 -1765.26123047 3576.70581055 C-1766.96425392 3575.0350685 -1768.72755842 3573.49565174 -1770.546875 3571.953125 C-1776.76150966 3566.54773209 -1782.44381271 3560.60003503 -1788.22265625 3554.73828125 C-1792.77309979 3550.14809585 -1797.36266806 3545.70345587 -1802.27099609 3541.49755859 C-1804.63542212 3539.4496358 -1806.85486764 3537.27750342 -1809.0625 3535.0625 C-1809.83722656 3534.29035156 -1810.61195313 3533.51820313 -1811.41015625 3532.72265625 C-1813.34913952 3530.68423794 -1815.17505861 3528.63436678 -1816.99609375 3526.49609375 C-1822.33346346 3520.34935402 -1828.21346366 3514.7186496 -1834 3509 C-1847.59909125 3495.56045116 -1847.59909125 3495.56045116 -1852.58398438 3489.63476562 C-1854.14481151 3487.8328176 -1855.79967122 3486.17059625 -1857.5 3484.5 C-1859.86358972 3482.17562913 -1862.08885957 3479.79486214 -1864.25 3477.28125 C-1867.89673011 3473.08654563 -1871.67802158 3469.03474835 -1875.5 3465 C-1879.89866996 3460.35645563 -1884.20839167 3455.66109104 -1888.40136719 3450.83056641 C-1890.51598364 3448.40915617 -1892.69364771 3446.04879549 -1894.875 3443.6875 C-1898.99906676 3439.17096163 -1902.87936865 3434.50866984 -1906.71875 3429.75 C-1909.06718968 3426.91900422 -1911.50909902 3424.20616402 -1914 3421.5 C-1918.03954818 3417.10621452 -1921.84679619 3412.58161176 -1925.59375 3407.9375 C-1928.2977877 3404.63646697 -1931.08111232 3401.41234787 -1933.875 3398.1875 C-1938.38701575 3392.96674949 -1942.70255046 3387.62683491 -1946.9296875 3382.17382812 C-1949.97961495 3378.25436548 -1953.13535288 3374.45102731 -1956.375 3370.6875 C-1961.15065592 3365.12459169 -1965.60535286 3359.3520886 -1970.02514648 3353.50415039 C-1973.72663391 3348.6213256 -1977.53929634 3343.85169021 -1981.4375 3339.125 C-1987.36035035 3331.91678408 -1992.89866557 3324.46229631 -1998.39453125 3316.92578125 C-2002.0667827 3311.89135622 -2005.8113123 3306.91323106 -2009.5625 3301.9375 C-2020.12008448 3287.901067 -2030.32952677 3273.62042691 -2040.42138672 3259.24658203 C-2042.09180436 3256.86934988 -2043.76657244 3254.49521625 -2045.44140625 3252.12109375 C-2052.65738705 3241.87402337 -2059.71394163 3231.53661948 -2066.62255859 3221.08007812 C-2067.93633582 3219.09613946 -2069.25731246 3217.11727033 -2070.58203125 3215.140625 C-2079.94890496 3201.163579 -2089.03417875 3187.01160587 -2097.9921875 3172.76953125 C-2099.90038237 3169.73710483 -2101.82116672 3166.71354769 -2103.7578125 3163.69921875 C-2118.9643596 3139.96406125 -2133.02436349 3115.47319134 -2147 3091 C-2147.55880859 3090.02272949 -2148.11761719 3089.04545898 -2148.69335938 3088.03857422 C-2160.29630331 3067.71981981 -2171.42237143 3047.16069987 -2182.1953125 3026.390625 C-2183.88130451 3023.14158975 -2185.57908128 3019.90003965 -2187.3046875 3016.671875 C-2200.79682219 2991.40863108 -2213.48268682 2965.6826308 -2225.34716797 2939.61767578 C-2226.81474456 2936.40548229 -2228.29505878 2933.19973363 -2229.78196716 2929.99647522 C-2257.33029003 2870.64109933 -2281.27736298 2809.70897546 -2303 2748 C-2303.29948547 2747.14964172 -2303.59897095 2746.29928345 -2303.90753174 2745.42315674 C-2332.30082152 2664.67597085 -2355.4194555 2581.78659256 -2373 2498 C-2373.21960388 2496.95569824 -2373.43920776 2495.91139648 -2373.66546631 2494.83544922 C-2397.58888081 2380.79603253 -2412.21037948 2265.13305664 -2418.625 2092.5 C-2418.63604893 2091.78728188 -2418.64709785 2091.07456375 -2418.6584816 2090.34024811 C-2420.25557823 1986.05359552 -2414.02638762 1881.62718677 -2290 1336 C-2289.66631409 1335.10700195 -2289.33262817 1334.21400391 -2288.98883057 1333.29394531 C-2270.35159829 1283.46548072 -2250.03225888 1234.26250826 -2227.43945312 1186.08935547 C-2225.99821724 1182.99617385 -2224.5824686 1179.892418 -2223.171875 1176.78515625 C-2215.27002185 1159.48113036 -2206.8321356 1142.44689055 -2198.3372612 1125.4286499 C-2197.39058002 1123.53122688 -2196.44527644 1121.63312318 -2195.50027466 1119.73486328 C-2188.45763107 1105.59587588 -2181.26226157 1091.56423342 -2173.60791016 1077.74438477 C-2170.99183451 1073.01635863 -2168.4874353 1068.23412007 -2166 1063.4375 C-2161.58666886 1054.99661495 -2156.90589446 1046.72752782 -2152.1484375 1038.4765625 C-2149.39588724 1033.70236515 -2146.68659219 1028.90485907 -2143.98608398 1024.10107422 C-2138.89723743 1015.05176139 -2133.72560443 1006.07238283 -2128.33154297 997.20214844 C-2126.721698 994.53973524 -2125.12827005 991.86777053 -2123.53515625 989.1953125 C-2116.84418953 977.97964955 -2110.08423773 966.82210627 -2103.0612793 955.81103516 C-2101.13620576 952.79057274 -2099.22024034 949.76482061 -2097.31713867 946.73046875 C-2090.14067891 935.29342993 -2082.79869547 923.97220325 -2075.36376953 912.70166016 C-2073.49824018 909.87233099 -2071.63766715 907.03978532 -2069.77734375 904.20703125 C-2063.22997312 894.259386 -2056.57039926 884.41442 -2049.64624023 874.72485352 C-2046.8968289 870.87453073 -2044.22515143 866.97312948 -2041.5625 863.0625 C-2026.03925092 840.38613774 -2009.52801714 818.31582775 -1992.7421875 796.5625 C-1990.1734735 793.23093283 -1987.62317327 789.88550383 -1985.07324219 786.53955078 C-1978.84128891 778.36705541 -1972.50370075 770.2999232 -1966.01171875 762.33203125 C-1964.9036038 760.97138839 -1963.79553214 759.61071029 -1962.6875 758.25 C-1962.12748291 757.56301025 -1961.56746582 756.87602051 -1960.99047852 756.16821289 C-1957.41922945 751.77738353 -1953.9105942 747.34365972 -1950.4375 742.875 C-1946.22110259 737.46050899 -1941.8286615 732.22435891 -1937.33740234 727.03637695 C-1934.35432845 723.5893446 -1931.43044536 720.10679811 -1928.5625 716.5625 C-1923.33213462 710.12219582 -1917.87865414 703.8790122 -1912.42285156 697.62988281 C-1911.25660288 696.29393974 -1910.09279889 694.95586288 -1908.9296875 693.6171875 C-1905.06585867 689.17827717 -1901.1301783 684.80641379 -1897.1875 680.4375 C-1895.27445851 678.30582519 -1893.38112388 676.1598089 -1891.5 674 C-1888.1801713 670.18834482 -1884.79878862 666.43448295 -1881.40625 662.6875 C-1879.47408027 660.52949225 -1877.56747382 658.35451251 -1875.66796875 656.16796875 C-1872.13952181 652.12856409 -1868.49638627 648.20993785 -1864.8125 644.3125 C-1860.6070619 639.84933108 -1856.41535496 635.37642469 -1852.27685547 630.85107422 C-1846.96950047 625.04820091 -1841.50994205 619.44695868 -1835.88671875 613.94921875 C-1833.78808109 611.85592628 -1831.84306291 609.67763125 -1829.91894531 607.42333984 C-1825.62457018 602.49701935 -1821.03517664 597.89144589 -1816.41015625 593.27734375 C-1815.50680038 592.37303116 -1814.60344452 591.46871857 -1813.67271423 590.53700256 C-1811.77203932 588.63565057 -1809.87040392 586.73532447 -1807.96704102 584.83666992 C-1805.54881608 582.42414139 -1803.13511042 580.00714919 -1800.72272587 577.58878231 C-1798.39181599 575.25335425 -1796.05706044 572.92177823 -1793.72265625 570.58984375 C-1792.86720718 569.73237045 -1792.01175812 568.87489716 -1791.13038635 567.99143982 C-1786.79902543 563.67677645 -1782.41090617 559.50104843 -1777.75608826 555.53590393 C-1774.68273596 552.84789901 -1771.85288759 549.91802201 -1769 547 C-1764.83080195 542.73561478 -1760.56352818 538.69259844 -1756.04882812 534.79492188 C-1752.52634955 531.70897544 -1749.14640834 528.47325042 -1745.75 525.25 C-1744.2530729 523.83674294 -1742.75567496 522.42398443 -1741.2578125 521.01171875 C-1740.53239258 520.32770996 -1739.80697266 519.64370117 -1739.05957031 518.93896484 C-1732.75328417 513.00196573 -1726.44967907 507.10915899 -1719.6875 501.6875 C-1715.08657426 497.98949764 -1710.78528809 494.05256142 -1706.5 490 C-1701.4471314 485.22577527 -1696.30890457 480.6821157 -1690.875 476.33984375 C-1687.34807464 473.46942488 -1683.9252543 470.49035573 -1680.5 467.5 C-1675.40491012 463.06070119 -1670.26313532 458.69982338 -1665.01171875 454.4453125 C-1661.89013175 451.91079439 -1658.78747337 449.35441031 -1655.68676758 446.79443359 C-1649.70211561 441.85366914 -1643.7081471 436.92977325 -1637.62890625 432.10546875 C-1635.54156963 430.43373853 -1633.46876411 428.74810245 -1631.40234375 427.05078125 C-1623.34419354 420.44003626 -1615.16861982 414.0457931 -1606.80078125 407.83203125 C-1603.33694813 405.25961937 -1599.9120534 402.6405314 -1596.5 400 C-1585.44747778 391.4678085 -1574.25524638 383.13729943 -1562.91430664 374.99243164 C-1558.27589586 371.65769429 -1553.67357693 368.27957528 -1549.09204102 364.8671875 C-1539.79103173 357.94839231 -1530.29918109 351.3613065 -1520.6953125 344.87109375 C-1515.78844605 341.55034515 -1510.93051261 338.16390588 -1506.08056641 334.76074219 C-1498.1624503 329.20641855 -1490.22913139 323.760714 -1481.97705078 318.71435547 C-1476.55405418 315.38782847 -1471.276218 311.86634051 -1466 308.3125 C-1455.44648001 301.22291294 -1444.696233 294.47451705 -1433.88427734 287.78759766 C-1431.19480526 286.12073507 -1428.51220092 284.44348512 -1425.83203125 282.76171875 C-1411.65693149 273.8883241 -1397.2421317 265.43711036 -1382.78375244 257.03704834 C-1381.06644633 256.03863095 -1379.35033727 255.03815545 -1377.63427734 254.03759766 C-1350.12901529 238.0042341 -1322.19417628 222.83265523 -1294.00140381 208.0501709 C-1292.09981995 207.05237724 -1290.19937706 206.05244834 -1288.29931641 205.05175781 C-1233.89970306 176.44097763 -1177.87368684 151.09845925 -1121.00372314 127.82049561 C-1119.10321881 127.04226661 -1117.20368068 126.2616793 -1115.30419922 125.48095703 C-1019.43136532 86.17880264 -920.01774455 54.60418625 -586 -11 C-584.57738861 -11.17822296 -584.57738861 -11.17822296 -583.1260376 -11.36004639 C-486.57593107 -23.44557446 -388.82698206 -27.6555617 0 0 Z " fill="#FDFDFD" transform="translate(2419,26)"/>
<path d="M0 0 C1.46473733 0.17666583 2.92957172 0.35253002 4.39453125 0.52734375 C33.26359307 4.12482725 62.9994549 10.11754812 91 18 C92.06637695 18.29559814 92.06637695 18.29559814 93.15429688 18.59716797 C128.4684471 28.48919632 163.14626159 41.04677806 196.29248047 56.72412109 C198.83497278 57.92223334 201.38593519 59.09941352 203.94140625 60.26953125 C228.70276684 71.67639266 252.61770628 85.43100797 275 101 C275.92159912 101.63639404 275.92159912 101.63639404 276.86181641 102.28564453 C291.43473072 112.36381419 305.61048616 122.90542513 319.0390625 134.47265625 C321.73326751 136.77232728 324.47667481 138.98466362 327.25 141.1875 C338.88059284 150.68357652 349.4965896 161.41518269 360.125 172 C360.90617187 172.77649902 361.68734375 173.55299805 362.4921875 174.35302734 C367.2003045 179.07433519 371.66196662 183.93852812 376 189 C377.03378755 190.17958635 378.06891368 191.35800111 379.10546875 192.53515625 C395.81283631 211.6155009 411.25906676 231.67094771 425 253 C425.46083984 253.7105957 425.92167969 254.42119141 426.39648438 255.15332031 C473.22650785 327.52415099 504.54874046 409.11535702 525.57312012 492.41830444 C526.56568787 496.33618785 527.59996511 500.23985302 528.671875 504.13671875 C541.46515398 550.99448981 550.65371697 599.58473479 556.53271484 647.80322266 C556.94114928 650.59739221 557.42940693 653.3549306 557.94799805 656.13012695 C559.02586278 661.98352273 559.85021087 667.85321383 560.62109375 673.75390625 C560.76652115 674.8530687 560.91194855 675.95223114 561.06178284 677.08470154 C561.36809415 679.40484742 561.67308151 681.72516845 561.97680664 684.0456543 C562.42952524 687.50162218 562.8872652 690.95689609 563.34570312 694.41210938 C566.17168216 715.81653158 568.793548 737.23564197 570.625 758.75 C570.80685633 760.86760516 570.98985107 762.98509104 571.17562866 765.10235596 C571.33923355 766.96872874 571.49911437 768.83542695 571.65869141 770.70214844 C571.95110884 773.92583861 571.95110884 773.92583861 572.5 776.7890625 C573.19741585 781.26777992 573.40609726 785.7422911 573.6484375 790.265625 C573.70649567 791.28952332 573.76455383 792.31342163 573.82437134 793.36834717 C574.06997891 797.70249751 574.3082144 802.03704452 574.546875 806.37158203 C575.37348166 821.28572664 576.35791542 836.18118253 577.4453125 851.078125 C578.49298152 865.45300114 579.44816002 879.82980671 580.28125 894.21875 C580.3573947 895.5326685 580.3573947 895.5326685 580.43507767 896.8731308 C580.84519439 903.96896135 581.24828208 911.06518796 581.65106201 918.16143799 C582.0036578 924.36823412 582.35908531 930.57485928 582.71875 936.78125 C582.76938599 937.65591415 582.82002197 938.53057831 582.87219238 939.43174744 C583.70176775 953.68108372 584.68404968 967.91624055 585.72517395 982.15151978 C586.8954981 998.17635791 587.87570939 1014.20634119 588.76391602 1030.24902344 C589.17662181 1037.69781764 589.60239472 1045.14587003 590.03125 1052.59375 C590.07323013 1053.32325867 590.11521027 1054.05276733 590.15846252 1054.80438232 C590.83629683 1066.54430487 591.61486946 1078.27384916 592.5 1090 C593.95281482 1109.24679464 595.03751019 1128.51219965 596.12929535 1147.78204346 C597.17303224 1166.19766041 598.25818064 1184.60488022 599.625 1203 C602.28849245 1239.19593023 604.83909602 1275.48395774 602 1311.75 C600.52496952 1330.82944884 600.78318907 1349.87742152 601 1369 C601.01202454 1370.10180603 601.02404907 1371.20361206 601.03643799 1372.33880615 C601.33142753 1398.91562322 601.76803737 1425.48909019 602.44343758 1452.05900574 C603.47756205 1492.75519363 604.19625318 1533.42537552 604.18803024 1574.13649368 C604.18750537 1577.34220764 604.18866464 1580.54791792 604.18997192 1583.75363159 C604.19094074 1588.81455071 604.18517361 1593.87542079 604.17382431 1598.93632698 C604.17001367 1600.78264192 604.16752545 1602.62896023 604.16656876 1604.47527885 C604.15871083 1613.68380531 604.03593319 1622.87690232 603.61450195 1632.07666016 C603.58429301 1632.79350164 603.55408407 1633.51034313 603.52295971 1634.24890709 C603.24069796 1639.73596812 602.67069272 1645.17834806 602.07502842 1650.6379509 C598.98683522 1679.57111847 597.54732153 1708.37842067 597.72453064 1737.46749967 C597.74774814 1741.91038606 597.75175118 1746.35330109 597.75806046 1750.79623795 C597.77108383 1758.47771554 597.7940579 1766.15910465 597.82397842 1773.84053421 C597.87153136 1786.19993204 597.89478971 1798.55932011 597.91256714 1810.91879272 C597.91409466 1811.97383736 597.91562218 1813.02888199 597.91719599 1814.11589767 C597.92490224 1819.5080304 597.93222358 1824.90016352 597.93928981 1830.29229712 C597.94511582 1834.67942749 597.95168458 1839.0665558 597.95890546 1843.45368409 C598.03819633 1891.76425045 597.87856697 1940.07279943 597.64788115 1988.38277447 C597.63281192 1991.53918395 597.61785421 1994.69559395 597.60291576 1997.85200405 C597.48826047 2022.0256359 597.36562114 2046.19922187 597.23883364 2070.37279281 C597.14861264 2087.61374741 597.06780897 2104.85473339 596.99069478 2122.09575112 C596.90935975 2140.25672151 596.82126 2158.41764852 596.7262429 2176.5785526 C596.67395327 2186.59728247 596.62418538 2196.61600737 596.58185196 2206.6347847 C596.2697742 2279.73198779 596.2697742 2279.73198779 594.32174486 2312.92703831 C593.67084817 2324.33689248 593.65433303 2335.76224034 593.62890625 2347.1875 C593.61793273 2349.66184581 593.60674637 2352.13619069 593.59536743 2354.61053467 C593.56526868 2362.40704331 593.561775 2370.2034423 593.5625 2378 C593.56182178 2379.34755966 593.56104937 2380.69511928 593.56018448 2382.04267883 C593.53624774 2425.31112907 594.51815762 2468.31554386 598.6550293 2511.40606689 C598.9892751 2514.88826714 599.31151673 2518.37138574 599.63085938 2521.85498047 C602.06084738 2548.05323518 605.59060718 2574.06412682 610 2600 C610.14695312 2600.8675592 610.29390625 2601.73511841 610.4453125 2602.62896729 C616.16411517 2636.28726758 622.280587 2670.20634799 632.35009766 2702.87939453 C633.20729299 2705.67638879 634.01940547 2708.4856616 634.83276367 2711.2956543 C635.65371741 2714.11844919 636.49562236 2716.93487254 637.3359375 2719.75195312 C638.02855861 2722.09667929 638.70185822 2724.44648829 639.375 2726.796875 C646.57383196 2751.5520183 655.23390018 2776.27979704 665.59912109 2799.89672852 C668.10118891 2805.69643326 668.10118891 2805.69643326 667 2809 C664.2800293 2810.37182617 664.2800293 2810.37182617 660.57421875 2811.79296875 C659.8969725 2812.0557663 659.21972626 2812.31856384 658.5219574 2812.58932495 C656.24819549 2813.46732757 653.96823349 2814.3277838 651.6875 2815.1875 C650.07061364 2815.80541875 648.45391834 2816.42383762 646.83740234 2817.04272461 C626.98492557 2824.61310006 607.01779959 2831.87974057 587 2839 C586.18335876 2839.29068359 585.36671753 2839.58136719 584.52532959 2839.88085938 C508.60151608 2866.8587658 430.03175071 2888.26764733 351 2904 C350.01356506 2904.19746826 349.02713013 2904.39493652 348.01080322 2904.59838867 C317.4448422 2910.71480004 286.82508453 2916.35180178 256 2921 C254.71944733 2921.19338959 254.71944733 2921.19338959 253.4130249 2921.39068604 C197.95517236 2929.73075374 142.16485391 2935.37976145 86.1875 2938.6875 C84.64204498 2938.77890762 84.64204498 2938.77890762 83.06536865 2938.87216187 C58.72879919 2940.29301314 34.42577203 2941.15912325 10.046875 2941.203125 C7.62907901 2941.21010606 5.2112832 2941.217147 2.79348755 2941.22424316 C-4.88767731 2941.24350978 -12.5688136 2941.24841888 -20.25 2941.25 C-21.55794273 2941.25058914 -22.86588547 2941.25117828 -24.21346283 2941.25178528 C-62.80476547 2941.26405693 -101.25289955 2941.02406671 -139.75823975 2938.23431396 C-143.10480553 2937.99242467 -146.45195299 2937.76035598 -149.79931641 2937.52978516 C-164.5464639 2936.50432821 -179.2770866 2935.3283321 -194 2934 C-194.87432678 2933.92114563 -195.74865356 2933.84229126 -196.6494751 2933.76104736 C-291.68195896 2925.11679472 -386.10598999 2908.50638983 -596.4697876 2850.82171631 C-598.99353496 2850.0020996 -601.51878163 2849.18726194 -604.04443359 2848.37353516 C-686.3276685 2821.82327791 -765.98284814 2787.98124927 -843.625 2750.0625 C-844.58225983 2749.59557739 -845.53951965 2749.12865479 -846.52578735 2748.64758301 C-865.22195737 2739.51454381 -883.68670365 2729.94033824 -902 2720.0625 C-903.06831055 2719.48677246 -904.13662109 2718.91104492 -905.23730469 2718.31787109 C-914.5182493 2713.29674039 -923.72309154 2708.1478879 -932.87890625 2702.90234375 C-936.02461616 2701.10321434 -939.18537348 2699.35960227 -942.40234375 2697.69140625 C-943.05235352 2697.3464209 -943.70236328 2697.00143555 -944.37207031 2696.64599609 C-946.02511176 2695.77323645 -947.6897297 2694.92249277 -949.35546875 2694.07421875 C-956.7660984 2688.26174557 -959.0427543 2675.9741241 -962.125 2667.3125 C-962.70250681 2665.69811433 -963.28014521 2664.08377573 -963.85791016 2662.46948242 C-965.30830893 2658.41032237 -966.75052537 2654.34830861 -968.18969727 2650.28515625 C-968.94629138 2648.15146512 -969.70593733 2646.01889189 -970.46679688 2643.88671875 C-975.98613928 2628.40087818 -980.89119658 2612.87077337 -985.17333984 2597 C-986.26679865 2593.03177149 -987.44093452 2589.08971721 -988.6184082 2585.14575195 C-1000.40951707 2545.57974085 -1008.97329888 2504.83024784 -1015 2464 C-1015.11553223 2463.22156738 -1015.23106445 2462.44313477 -1015.35009766 2461.64111328 C-1016.11604769 2456.4513041 -1016.85238492 2451.25777743 -1017.57324219 2446.06152344 C-1017.87523698 2443.89503908 -1018.18094223 2441.72907043 -1018.48925781 2439.56347656 C-1020.69019978 2424.07398477 -1022.49630873 2408.65217271 -1023.56640625 2393.04296875 C-1023.88500677 2388.40670574 -1024.28789086 2383.78736728 -1024.76928711 2379.1652832 C-1027.03358344 2356.65240854 -1027.16143648 2334.17617032 -1027.13037109 2311.57250977 C-1027.12471642 2307.42511103 -1027.12803802 2303.27777708 -1027.13380814 2299.13038063 C-1027.15290092 2282.96485907 -1027.06585814 2266.81074254 -1026.5546875 2250.65234375 C-1026.49657394 2248.77054161 -1026.49657394 2248.77054161 -1026.43728638 2246.85072327 C-1026.23651193 2241.16719245 -1025.91919293 2235.55549868 -1025.2232666 2229.91081238 C-1024.90512316 2227.18800284 -1024.78582298 2224.46877269 -1024.67578125 2221.73046875 C-1023.82505503 2203.62442341 -1022.09869654 2185.69142728 -1020 2167.6875 C-1019.80272812 2165.98525772 -1019.80272812 2165.98525772 -1019.60147095 2164.24862671 C-1019.21838206 2160.96072214 -1018.82951687 2157.67356994 -1018.4375 2154.38671875 C-1018.32290939 2153.41585327 -1018.20831879 2152.44498779 -1018.09025574 2151.44470215 C-1017.37161384 2145.52988584 -1016.47842385 2139.66311029 -1015.47521973 2133.78999329 C-1014.84322673 2130.07959128 -1014.27074113 2126.3613055 -1013.703125 2122.640625 C-1009.53701309 2095.5993772 -1005.10191296 2068.70021865 -998.49609375 2042.12890625 C-996.89279776 2035.65417743 -995.47744098 2029.14299915 -994.0625 2022.625 C-991.28682791 2009.93424512 -988.0893884 1997.37250257 -984.74902344 1984.81982422 C-984.12943566 1982.48728223 -983.51808281 1980.15301115 -982.9140625 1977.81640625 C-977.31352443 1956.347677 -970.68822501 1935.14974452 -964 1914 C-963.77785828 1913.29621216 -963.55571655 1912.59242432 -963.32684326 1911.86730957 C-938.9020688 1834.53262375 -907.76821744 1759.73925992 -873.3125 1686.375 C-872.99592438 1685.70046783 -872.67934875 1685.02593567 -872.35317993 1684.33096313 C-868.45387 1676.03654768 -864.43648 1667.80878111 -860.3190918 1659.62060547 C-858.05392095 1655.11476223 -855.80947961 1650.59873383 -853.56599426 1646.08206177 C-851.36290017 1641.64802774 -849.1551362 1637.21632513 -846.94726562 1632.78466797 C-845.82146249 1630.52302145 -844.69709824 1628.26065808 -843.57421875 1625.99755859 C-836.86810241 1612.48520532 -829.99779358 1599.10234286 -822.69018555 1585.90454102 C-819.89006072 1580.8371249 -817.21847 1575.7065878 -814.5625 1570.5625 C-809.73525067 1561.27897226 -804.62906516 1552.1725706 -799.44921875 1543.08203125 C-796.40950817 1537.74138623 -793.42763291 1532.37026833 -790.45654297 1526.99121094 C-783.43792831 1514.28569092 -776.23917241 1501.70145694 -768.87597656 1489.19287109 C-766.85538396 1485.75386666 -764.84482219 1482.30913106 -762.8359375 1478.86328125 C-754.05313779 1463.80783644 -745.14013875 1448.84224365 -736 1434 C-735.1968335 1432.69506592 -735.1968335 1432.69506592 -734.37744141 1431.36376953 C-722.21986826 1411.63032633 -709.92955025 1391.97731002 -697.52001953 1372.40136719 C-695.93520657 1369.89763762 -694.35618979 1367.39030836 -692.77734375 1364.8828125 C-685.60216671 1353.51568989 -678.23618654 1342.28749974 -670.75683594 1331.11938477 C-665.82848363 1323.75828629 -660.95239674 1316.36532284 -656.125 1308.9375 C-642.08617552 1287.36569273 -627.49420706 1266.46024265 -611.83984375 1246.0234375 C-608.53153605 1241.70314808 -605.25611015 1237.35970609 -602 1233 C-597.43239074 1226.88852008 -592.81742166 1220.81438938 -588.1875 1214.75 C-576.8093757 1199.83839771 -565.56850965 1184.82799545 -554.46484375 1169.7109375 C-552.15311905 1166.56386179 -549.8324726 1163.42369602 -547.50390625 1160.2890625 C-540.3034457 1150.5844429 -533.27850081 1140.77502841 -526.3828125 1130.8515625 C-524.21081227 1127.72690883 -522.02041911 1124.61722993 -519.8046875 1121.5234375 C-514.07599163 1113.51831255 -508.6448402 1105.41330132 -503.49609375 1097.0234375 C-501.36119699 1093.55306586 -499.13973456 1090.14679683 -496.89599609 1086.74609375 C-473.55427439 1052.35637023 -473.55427439 1052.35637023 -468.625 1012.88671875 C-472.41438149 999.03179268 -479.99592054 987.04462362 -489 976 C-489.66491455 975.17483887 -489.66491455 975.17483887 -490.34326172 974.33300781 C-505.83577536 955.2113742 -526.16316725 935.4438383 -551 930 C-555.31165575 929.58252413 -559.59613493 929.55868701 -563.92578125 929.55859375 C-565.86069806 929.53955016 -567.79561477 929.52049346 -569.73052692 929.50098324 C-571.80722934 929.48255395 -573.88387198 929.47098759 -575.96063232 929.46124268 C-582.80092761 929.42768418 -589.64074505 929.34398296 -596.48064423 929.26543427 C-598.89213557 929.23804224 -601.30364053 929.21218169 -603.71514893 929.18634033 C-618.29204719 929.02439773 -632.86008643 928.66154376 -647.4317627 928.24996948 C-683.37678058 927.23553134 -719.32654622 926.417413 -755.27719736 925.63320529 C-756.45087059 925.60760223 -756.45087059 925.60760223 -757.64825439 925.58148193 C-758.42961683 925.5644406 -759.21097926 925.54739928 -760.01601934 925.52984154 C-765.41542214 925.41179222 -770.81474949 925.29064757 -776.21405029 925.16802979 C-805.86577448 924.49591832 -835.51086917 923.87252346 -865.171875 923.8671875 C-866.74751315 923.8658185 -866.74751315 923.8658185 -868.35498238 923.86442184 C-898.77540297 923.85886125 -928.786133 926.44270057 -959.02734375 929.49755859 C-959.85669434 929.58132751 -960.68604492 929.66509644 -961.54052734 929.75140381 C-963.15155912 929.91424212 -964.76256283 930.07735832 -966.37353516 930.24078369 C-983.17027413 931.93876876 -999.85767854 933.2765878 -1016.75 933.3125 C-1018.72033203 933.32071777 -1018.72033203 933.32071777 -1020.73046875 933.32910156 C-1035.74874184 933.21765583 -1054.97208848 932.80858475 -1066.86328125 922.36328125 C-1073.39371196 915.15225975 -1074.64711448 907.67533929 -1074.34375 898.18359375 C-1072.54953948 870.1875017 -1051.28262013 842.14795536 -1036 820 C-1035.48985352 819.2589502 -1034.97970703 818.51790039 -1034.45410156 817.75439453 C-1026.65690363 806.48229858 -1018.10716769 796.03997732 -1008.7734375 786.01953125 C-1006.68324413 783.7694615 -1004.66630536 781.46585032 -1002.66015625 779.140625 C-998.96242737 774.89819531 -995.0522611 770.90417666 -991.0625 766.9375 C-990.39798828 766.26912109 -989.73347656 765.60074219 -989.04882812 764.91210938 C-985.1195563 760.9904598 -981.08036773 757.25896473 -976.87768555 753.63256836 C-974.14742731 751.25872402 -971.51537342 748.78521035 -968.875 746.3125 C-958.95898499 737.10069335 -948.66430356 728.3345634 -938 720 C-937.01773437 719.22140625 -936.03546875 718.4428125 -935.0234375 717.640625 C-911.36641825 699.01825788 -884.86523018 684.41729854 -858 671 C-857.17967285 670.58588867 -856.3593457 670.17177734 -855.51416016 669.74511719 C-824.48228878 654.15155119 -790.7931796 641.0617004 -757.37744141 631.66943359 C-754.87679054 630.96530701 -752.38155943 630.24396115 -749.88671875 629.51953125 C-744.59803147 627.98828439 -739.3007816 626.48877907 -734 625 C-733.08395996 624.74186523 -732.16791992 624.48373047 -731.22412109 624.21777344 C-710.66428261 618.44370361 -689.94763279 614.12334935 -669 610 C-670.62275859 602.65636513 -672.29771324 595.32558486 -674 588 C-674.18159668 587.20561523 -674.36319336 586.41123047 -674.55029297 585.59277344 C-677.27279534 573.83972287 -681.19577098 562.59149314 -685.3046875 551.26696777 C-688.8029291 541.61714741 -691.89494353 532.06216994 -694 522 C-694.16569992 521.40447327 -694.33139984 520.80894653 -694.50212097 520.19537354 C-696.57540988 511.0533062 -696.15805714 501.15424431 -696.16796875 491.828125 C-696.1721582 490.60307755 -696.17634766 489.37803009 -696.18066406 488.11585999 C-696.19039909 484.1605529 -696.19058585 480.20531158 -696.1875 476.25 C-696.18738041 475.57482204 -696.18726082 474.89964409 -696.1871376 474.2040062 C-696.17591089 424.14445941 -694.16538958 375.1077313 -679 327 C-678.57418264 325.61199024 -678.1483975 324.2239706 -677.72265625 322.8359375 C-666.51534132 287.59138483 -648.19685305 253.52109414 -626 224 C-625.55962402 223.41089844 -625.11924805 222.82179688 -624.66552734 222.21484375 C-616.75862736 211.67623982 -608.49624161 201.47993831 -599.5546875 191.80078125 C-597.60147205 189.65941201 -595.70408124 187.49461088 -593.81640625 185.296875 C-589.45033228 180.29251025 -584.7673797 175.62120245 -580.0625 170.9375 C-578.77956055 169.64875977 -578.77956055 169.64875977 -577.47070312 168.33398438 C-572.4758519 163.34675306 -567.37166163 158.57707511 -562 154 C-560.88208412 153.0268778 -559.76486862 152.05295027 -558.6484375 151.078125 C-550.62378423 144.12714174 -542.41938954 137.46581921 -534 131 C-533.39494629 130.53126465 -532.78989258 130.0625293 -532.16650391 129.57958984 C-508.94055514 111.61762214 -483.87957714 95.84317703 -458 82 C-457.14776855 81.54302734 -456.29553711 81.08605469 -455.41748047 80.61523438 C-406.95227781 54.73210175 -355.90983787 34.04174621 -302.56201172 20.65869141 C-299.40178894 19.84620036 -296.26546708 18.96196974 -293.12866211 18.06396484 C-250.72512886 5.94057027 -205.86160846 -0.73026282 -161.90283203 -3.78955078 C-158.74377875 -4.0185755 -155.58946425 -4.28936181 -152.43359375 -4.55859375 C-101.76104383 -8.59076504 -50.38199219 -6.43562093 0 0 Z " fill="#222222" transform="translate(2115,1242)"/>
<path d="M0 0 C4.77992291 0.54836592 8.3055564 2.77126163 12.3125 5.25 C20.32603755 10.0874241 28.49598307 14.58360053 36.74536133 19.00488281 C41.18716098 21.38838049 45.62154679 23.78080872 50.01733398 26.24829102 C61.60553193 32.75197316 73.3455548 38.90944952 85.1875 44.9375 C86.15610962 45.43145264 87.12471924 45.92540527 88.12268066 46.43432617 C174.36550342 90.38800701 263.41052473 127.39849817 504 200 C504.85013672 200.20496094 505.70027344 200.40992187 506.57617188 200.62109375 C528.52252944 205.90167327 550.52875179 210.62530271 572.71482849 214.78326416 C576.97824133 215.59035952 581.21944136 216.47221824 585.4584198 217.39857483 C598.54317478 220.2450058 611.73680219 222.40417925 624.95150375 224.55205536 C626.96438082 224.87937111 628.97703134 225.20805347 630.98965454 225.53692627 C654.93890646 229.44509254 678.92386372 232.96526661 703 236 C704.48666338 236.18937671 705.97331729 236.37882777 707.45996094 236.56835938 C717.29566332 237.81552936 727.14096456 238.95347841 737 240 C737.75601501 240.08036499 738.51203003 240.16072998 739.29095459 240.24353027 C762.83301827 242.72769946 786.41558632 244.52683463 810.03688049 246.05633545 C812.02401426 246.18500794 814.01109222 246.31454137 815.99816895 246.4440918 C839.88266038 247.98873571 863.76384223 248.98916651 887.69213867 249.50268555 C890.40881132 249.56187495 893.12527974 249.62746136 895.84179688 249.69335938 C925.00416513 250.36089383 954.15749701 250.07030739 983.3125 249.25 C984.0736058 249.22893314 984.83471161 249.20786629 985.61888123 249.18616104 C1053.78049574 247.29150109 1121.45809813 241.31848009 1189 232 C1189.83797119 231.88505188 1190.67594238 231.77010376 1191.53930664 231.65167236 C1201.28279692 230.31407785 1211.00779549 228.8790621 1220.72381592 227.35498047 C1223.14995232 226.97661431 1225.57709151 226.60518001 1228.00439453 226.234375 C1315.93338775 212.73885584 1402.89404113 191.27983468 1577.625 133.6875 C1578.50498657 133.36065216 1579.38497314 133.03380432 1580.29162598 132.697052 C1590.84183751 128.7699296 1601.33300851 124.72246095 1611.75015259 120.45329285 C1612.54078094 120.1320192 1613.3314093 119.81074554 1614.14599609 119.47973633 C1615.19259903 119.05039543 1615.19259903 119.05039543 1616.26034546 118.61238098 C1618 118 1618 118 1620 118 C1620.33 117.01 1620.66 116.02 1621 115 C1621.33 116.65 1621.66 118.3 1622 120 C1612.87769541 124.35883072 1603.51965589 127.9531071 1594.0625 131.5 C1593.26032043 131.80202332 1592.45814087 132.10404663 1591.63165283 132.41522217 C1574.53756193 138.85037249 1557.38763251 145.12675541 1540.17218018 151.22973633 C1538.74461688 151.73595591 1537.31732157 152.242932 1535.89031982 152.75073242 C1460.8658981 179.44586307 1383.10307816 200.45251232 1305 216 C1304.01356506 216.19746826 1303.02713013 216.39493652 1302.01080322 216.59838867 C1271.4448422 222.71480004 1240.82508453 228.35180178 1210 233 C1208.71944733 233.19338959 1208.71944733 233.19338959 1207.4130249 233.39068604 C1151.95517236 241.73075374 1096.16485391 247.37976145 1040.1875 250.6875 C1039.15719666 250.74843842 1038.12689331 250.80937683 1037.06536865 250.87216187 C1012.72879919 252.29301314 988.42577203 253.15912325 964.046875 253.203125 C961.62907901 253.21010606 959.2112832 253.217147 956.79348755 253.22424316 C949.11232269 253.24350978 941.4311864 253.24841888 933.75 253.25 C932.44205727 253.25058914 931.13411453 253.25117828 929.78653717 253.25178528 C891.19523453 253.26405693 852.74710045 253.02406671 814.24176025 250.23431396 C810.89519447 249.99242467 807.54804701 249.76035598 804.20068359 249.52978516 C789.4535361 248.50432821 774.7229134 247.3283321 760 246 C759.12567322 245.92114563 758.25134644 245.84229126 757.3505249 245.76104736 C662.31804104 237.11679472 567.89401001 220.50638983 357.5302124 162.82171631 C355.00646504 162.0020996 352.48121837 161.18726194 349.95556641 160.37353516 C267.6723315 133.82327791 188.01715186 99.98124927 110.375 62.0625 C109.41774017 61.59557739 108.46048035 61.12865479 107.47421265 60.64758301 C88.77804263 51.51454381 70.31329635 41.94033824 52 32.0625 C50.93168945 31.48677246 49.86337891 30.91104492 48.76269531 30.31787109 C38.59553923 24.81728665 28.52911469 19.14646348 18.49267578 13.41162109 C16.18199356 12.10306433 13.85924072 10.82104449 11.52734375 9.55078125 C10.86831055 9.18774902 10.20927734 8.8247168 9.53027344 8.45068359 C7.84031094 7.52151767 6.14501694 6.60206587 4.44921875 5.68359375 C1.92298622 3.94706071 1.02741232 2.84562078 0 0 Z " fill="#302A28" transform="translate(1161,3930)"/>
</svg>
